<?xml version="1.0" standalone="no"?>
<!DOCTYPE svg PUBLIC "-//W3C//DTD SVG 20010904//EN"
 "http://www.w3.org/TR/2001/REC-SVG-20010904/DTD/svg10.dtd">
<svg version="1.0" xmlns="http://www.w3.org/2000/svg"
 width="500.000000pt" height="500.000000pt" viewBox="0 0 500.000000 500.000000"
 preserveAspectRatio="xMidYMid meet">

<g transform="translate(0.000000,500.000000) scale(0.100000,-0.100000)"
fill="#000000" stroke="none">
<path d="M1098 4320 c-61 -18 -98 -53 -162 -150 -128 -195 -220 -415 -258
-621 -32 -171 -32 -449 -1 -619 47 -254 167 -512 337 -725 235 -295 594 -511
961 -579 250 -45 419 -44 669 5 92 18 120 28 177 64 88 57 118 107 132 219
l11 83 -40 58 c-29 43 -53 66 -94 87 -74 40 -134 36 -247 -15 -68 -31 -99 -39
-190 -48 -113 -11 -173 -7 -313 17 -230 40 -442 153 -610 323 -249 253 -369
592 -330 939 7 64 19 142 27 172 21 81 82 229 114 275 92 133 121 194 131 275
9 76 8 81 -18 125 -59 101 -183 149 -296 115z"/>
<path d="M2530 3403 c-110 -12 -338 -66 -372 -89 -60 -39 -91 -95 -96 -171 -7
-106 37 -192 122 -235 55 -29 161 -27 340 6 353 64 777 -81 1026 -352 132
-143 245 -349 284 -520 34 -145 38 -347 10 -516 -15 -91 -92 -285 -144 -362
-16 -25 -30 -48 -30 -53 0 -4 -11 -18 -25 -31 -81 -76 -114 -188 -81 -275 24
-62 102 -130 173 -151 147 -43 248 35 403 308 84 147 153 339 181 503 32 180
32 417 0 600 -58 334 -243 669 -503 908 -145 134 -296 232 -483 311 -99 43
-306 98 -428 115 -73 10 -298 13 -377 4z"/>
</g>
</svg>
